<mxfile host="Electron" agent="Mozilla/5.0 (Windows NT 10.0; Win64; x64) AppleWebKit/537.36 (KHTML, like Gecko) draw.io/26.2.15 Chrome/134.0.6998.205 Electron/35.2.1 Safari/537.36" version="26.2.15">
  <diagram name="Page-1" id="of_rWCsYgEdew_ym9TxW">
    <mxGraphModel dx="1226" dy="819" grid="1" gridSize="10" guides="1" tooltips="1" connect="1" arrows="1" fold="1" page="1" pageScale="1" pageWidth="850" pageHeight="1100" math="0" shadow="0">
      <root>
        <mxCell id="0" />
        <mxCell id="1" parent="0" />
        <mxCell id="pBMnCugl9iRUpQeV2O6h-1" value="" style="rounded=0;whiteSpace=wrap;html=1;fillColor=none;dashed=1;strokeColor=#9C9C9C;align=center;" vertex="1" parent="1">
          <mxGeometry x="50" y="140" width="130" height="540" as="geometry" />
        </mxCell>
        <mxCell id="pBMnCugl9iRUpQeV2O6h-2" value="&lt;b&gt;Sources&lt;/b&gt;" style="rounded=0;whiteSpace=wrap;html=1;strokeColor=none;dashed=1;" vertex="1" parent="1">
          <mxGeometry x="55" y="120" width="120" height="40" as="geometry" />
        </mxCell>
        <mxCell id="pBMnCugl9iRUpQeV2O6h-5" value="" style="rounded=0;whiteSpace=wrap;html=1;fillColor=none;dashed=1;strokeColor=#9C9C9C;align=left;" vertex="1" parent="1">
          <mxGeometry x="240" y="140" width="400" height="420" as="geometry" />
        </mxCell>
        <mxCell id="pBMnCugl9iRUpQeV2O6h-7" value="" style="rounded=0;whiteSpace=wrap;html=1;fillColor=none;dashed=1;strokeColor=#9C9C9C;align=left;fontSize=11;" vertex="1" parent="1">
          <mxGeometry x="680" y="140" width="130" height="540" as="geometry" />
        </mxCell>
        <mxCell id="pBMnCugl9iRUpQeV2O6h-8" value="&lt;b&gt;Data Warehouse&lt;/b&gt;" style="rounded=0;whiteSpace=wrap;html=1;strokeColor=none;dashed=1;" vertex="1" parent="1">
          <mxGeometry x="365" y="120" width="120" height="40" as="geometry" />
        </mxCell>
        <mxCell id="pBMnCugl9iRUpQeV2O6h-9" value="&lt;b&gt;Consume&lt;/b&gt;" style="rounded=0;whiteSpace=wrap;html=1;strokeColor=none;dashed=1;" vertex="1" parent="1">
          <mxGeometry x="690" y="125" width="100" height="30" as="geometry" />
        </mxCell>
        <mxCell id="pBMnCugl9iRUpQeV2O6h-10" value="&lt;font&gt;Bronze Layer&lt;/font&gt;" style="rounded=0;whiteSpace=wrap;html=1;strokeColor=#d79b00;dashed=1;fontSize=16;fillColor=#ffe6cc;" vertex="1" parent="1">
          <mxGeometry x="250" y="180" width="100" height="20" as="geometry" />
        </mxCell>
        <mxCell id="pBMnCugl9iRUpQeV2O6h-12" value="" style="rounded=0;whiteSpace=wrap;html=1;strokeColor=#C28B00;dashed=1;fontSize=16;fillColor=none;" vertex="1" parent="1">
          <mxGeometry x="250" y="210" width="100" height="470" as="geometry" />
        </mxCell>
        <mxCell id="pBMnCugl9iRUpQeV2O6h-13" value="&lt;font&gt;Silver Layer&lt;/font&gt;" style="rounded=0;whiteSpace=wrap;html=1;strokeColor=#666666;dashed=1;fontSize=16;fillColor=#f5f5f5;fontColor=#333333;" vertex="1" parent="1">
          <mxGeometry x="380" y="180" width="100" height="20" as="geometry" />
        </mxCell>
        <mxCell id="pBMnCugl9iRUpQeV2O6h-14" value="" style="rounded=0;whiteSpace=wrap;html=1;strokeColor=#424242;dashed=1;fontSize=16;fillColor=none;" vertex="1" parent="1">
          <mxGeometry x="380" y="210" width="100" height="340" as="geometry" />
        </mxCell>
        <mxCell id="pBMnCugl9iRUpQeV2O6h-15" value="&lt;font&gt;Gold Layer&lt;/font&gt;" style="rounded=0;whiteSpace=wrap;html=1;strokeColor=#d6b656;dashed=1;fontSize=16;fillColor=#fff2cc;" vertex="1" parent="1">
          <mxGeometry x="510" y="180" width="100" height="20" as="geometry" />
        </mxCell>
        <mxCell id="pBMnCugl9iRUpQeV2O6h-16" value="" style="rounded=0;whiteSpace=wrap;html=1;strokeColor=light-dark(#cb931a, #2b2b00);dashed=1;fontSize=16;fillColor=none;" vertex="1" parent="1">
          <mxGeometry x="510" y="210" width="100" height="430" as="geometry" />
        </mxCell>
        <mxCell id="pBMnCugl9iRUpQeV2O6h-17" value="" style="image;aspect=fixed;html=1;points=[];align=center;fontSize=12;image=img/lib/azure2/general/Folder_Blank.svg;" vertex="1" parent="1">
          <mxGeometry x="90.27999999999999" y="252" width="39.43" height="32" as="geometry" />
        </mxCell>
        <mxCell id="pBMnCugl9iRUpQeV2O6h-18" value="" style="image;aspect=fixed;html=1;points=[];align=center;fontSize=12;image=img/lib/azure2/general/File.svg;" vertex="1" parent="1">
          <mxGeometry x="114.47999999999999" y="274.62" width="15.23" height="18.76" as="geometry" />
        </mxCell>
        <mxCell id="pBMnCugl9iRUpQeV2O6h-21" value="" style="image;aspect=fixed;html=1;points=[];align=center;fontSize=12;image=img/lib/azure2/general/Folder_Blank.svg;" vertex="1" parent="1">
          <mxGeometry x="90.27999999999999" y="360" width="39.43" height="32" as="geometry" />
        </mxCell>
        <mxCell id="pBMnCugl9iRUpQeV2O6h-22" value="" style="image;aspect=fixed;html=1;points=[];align=center;fontSize=12;image=img/lib/azure2/general/File.svg;" vertex="1" parent="1">
          <mxGeometry x="114.47999999999999" y="382.62" width="15.23" height="18.76" as="geometry" />
        </mxCell>
        <mxCell id="pBMnCugl9iRUpQeV2O6h-23" value="&lt;b&gt;ERP&lt;/b&gt;" style="rounded=0;whiteSpace=wrap;html=1;dashed=1;dashPattern=1 4;" vertex="1" parent="1">
          <mxGeometry x="90.27999999999997" y="408" width="36" height="12" as="geometry" />
        </mxCell>
        <mxCell id="pBMnCugl9iRUpQeV2O6h-31" value="&lt;b&gt;CRM&lt;/b&gt;" style="rounded=0;whiteSpace=wrap;html=1;dashed=1;dashPattern=1 4;" vertex="1" parent="1">
          <mxGeometry x="91.99999999999997" y="300" width="36" height="12" as="geometry" />
        </mxCell>
        <mxCell id="pBMnCugl9iRUpQeV2O6h-34" value="" style="endArrow=none;html=1;rounded=0;" edge="1" parent="1">
          <mxGeometry width="50" height="50" relative="1" as="geometry">
            <mxPoint x="70" y="440" as="sourcePoint" />
            <mxPoint x="147.09" y="440" as="targetPoint" />
            <Array as="points">
              <mxPoint x="70" y="440" />
            </Array>
          </mxGeometry>
        </mxCell>
        <mxCell id="pBMnCugl9iRUpQeV2O6h-38" value="&lt;font style=&quot;font-size: 9px;&quot;&gt;&lt;b&gt;Object Type:&lt;/b&gt;CSV Files&lt;/font&gt;&lt;div&gt;&lt;font style=&quot;font-size: 9px;&quot;&gt;&lt;b&gt;Interface:&lt;/b&gt;Files in Folder&lt;/font&gt;&lt;/div&gt;" style="rounded=0;whiteSpace=wrap;html=1;" vertex="1" parent="1">
          <mxGeometry x="65" y="460" width="100" height="40" as="geometry" />
        </mxCell>
        <mxCell id="pBMnCugl9iRUpQeV2O6h-39" value="" style="html=1;verticalLabelPosition=bottom;align=center;labelBackgroundColor=#ffffff;verticalAlign=top;strokeWidth=2;strokeColor=#d79b00;shadow=0;dashed=0;shape=mxgraph.ios7.icons.data;fillColor=#ffe6cc;" vertex="1" parent="1">
          <mxGeometry x="280" y="252" width="30" height="38" as="geometry" />
        </mxCell>
        <mxCell id="pBMnCugl9iRUpQeV2O6h-40" value="" style="html=1;verticalLabelPosition=bottom;align=center;labelBackgroundColor=#ffffff;verticalAlign=top;strokeWidth=2;strokeColor=#666666;shadow=0;dashed=0;shape=mxgraph.ios7.icons.data;fillColor=#f5f5f5;fontColor=#333333;" vertex="1" parent="1">
          <mxGeometry x="415" y="249" width="30" height="38" as="geometry" />
        </mxCell>
        <mxCell id="pBMnCugl9iRUpQeV2O6h-41" value="" style="html=1;verticalLabelPosition=bottom;align=center;labelBackgroundColor=#ffffff;verticalAlign=top;strokeWidth=2;strokeColor=#d6b656;shadow=0;dashed=0;shape=mxgraph.ios7.icons.data;fillColor=#fff2cc;" vertex="1" parent="1">
          <mxGeometry x="545" y="246" width="30" height="38" as="geometry" />
        </mxCell>
        <mxCell id="pBMnCugl9iRUpQeV2O6h-42" value="" style="shape=singleArrow;whiteSpace=wrap;html=1;fillColor=#60a917;strokeColor=#2D7600;fontColor=#ffffff;" vertex="1" parent="1">
          <mxGeometry x="180" y="315" width="60" height="30" as="geometry" />
        </mxCell>
        <mxCell id="pBMnCugl9iRUpQeV2O6h-43" value="" style="shape=singleArrow;whiteSpace=wrap;html=1;fillColor=#60a917;strokeColor=#2D7600;fontColor=#ffffff;" vertex="1" parent="1">
          <mxGeometry x="340" y="312" width="60" height="30" as="geometry" />
        </mxCell>
        <mxCell id="pBMnCugl9iRUpQeV2O6h-44" value="" style="shape=singleArrow;whiteSpace=wrap;html=1;fillColor=#60a917;strokeColor=#2D7600;fontColor=#ffffff;" vertex="1" parent="1">
          <mxGeometry x="470" y="312" width="60" height="30" as="geometry" />
        </mxCell>
        <mxCell id="pBMnCugl9iRUpQeV2O6h-45" value="" style="shape=singleArrow;whiteSpace=wrap;html=1;fillColor=#60a917;strokeColor=#2D7600;fontColor=#ffffff;" vertex="1" parent="1">
          <mxGeometry x="620" y="312" width="60" height="30" as="geometry" />
        </mxCell>
        <mxCell id="pBMnCugl9iRUpQeV2O6h-46" value="&lt;font style=&quot;font-size: 7px;&quot;&gt;&lt;b&gt;Raw Data&lt;/b&gt;&lt;/font&gt;" style="text;html=1;align=center;verticalAlign=middle;whiteSpace=wrap;rounded=0;" vertex="1" parent="1">
          <mxGeometry x="265" y="300" width="60" height="10" as="geometry" />
        </mxCell>
        <mxCell id="pBMnCugl9iRUpQeV2O6h-47" value="&lt;font style=&quot;font-size: 7px;&quot;&gt;&lt;b&gt;Cleaned, standardized Data&lt;/b&gt;&lt;/font&gt;" style="text;html=1;align=center;verticalAlign=middle;whiteSpace=wrap;rounded=0;" vertex="1" parent="1">
          <mxGeometry x="380" y="300" width="105" as="geometry" />
        </mxCell>
        <mxCell id="pBMnCugl9iRUpQeV2O6h-49" value="&lt;font style=&quot;font-size: 7px;&quot;&gt;&lt;b&gt;Business-Ready Data&lt;/b&gt;&lt;/font&gt;" style="text;html=1;align=center;verticalAlign=middle;whiteSpace=wrap;rounded=0;" vertex="1" parent="1">
          <mxGeometry x="510" y="300" width="105" as="geometry" />
        </mxCell>
        <mxCell id="pBMnCugl9iRUpQeV2O6h-50" value="" style="endArrow=none;html=1;rounded=0;" edge="1" parent="1">
          <mxGeometry width="50" height="50" relative="1" as="geometry">
            <mxPoint x="256.45" y="320" as="sourcePoint" />
            <mxPoint x="333.53999999999996" y="320" as="targetPoint" />
            <Array as="points">
              <mxPoint x="256.45" y="320" />
            </Array>
          </mxGeometry>
        </mxCell>
        <mxCell id="pBMnCugl9iRUpQeV2O6h-51" value="" style="endArrow=none;html=1;rounded=0;" edge="1" parent="1">
          <mxGeometry width="50" height="50" relative="1" as="geometry">
            <mxPoint x="400" y="320" as="sourcePoint" />
            <mxPoint x="477.09" y="320" as="targetPoint" />
            <Array as="points">
              <mxPoint x="400" y="320" />
            </Array>
          </mxGeometry>
        </mxCell>
        <mxCell id="pBMnCugl9iRUpQeV2O6h-52" value="" style="endArrow=none;html=1;rounded=0;" edge="1" parent="1">
          <mxGeometry width="50" height="50" relative="1" as="geometry">
            <mxPoint x="530" y="320" as="sourcePoint" />
            <mxPoint x="607.0899999999999" y="320" as="targetPoint" />
            <Array as="points">
              <mxPoint x="530" y="320" />
            </Array>
          </mxGeometry>
        </mxCell>
        <mxCell id="pBMnCugl9iRUpQeV2O6h-53" value="&lt;font style=&quot;font-size: 9px;&quot;&gt;&lt;b style=&quot;&quot;&gt;Object Type:&lt;/b&gt;Table&lt;/font&gt;&lt;div style=&quot;text-align: left;&quot;&gt;&lt;b style=&quot;background-color: transparent; color: light-dark(rgb(0, 0, 0), rgb(255, 255, 255));&quot;&gt;&lt;font style=&quot;font-size: 9px;&quot;&gt;Load:&lt;/font&gt;&lt;/b&gt;&lt;/div&gt;&lt;div style=&quot;text-align: left;&quot;&gt;&lt;ul&gt;&lt;li&gt;&lt;b style=&quot;background-color: transparent; color: light-dark(rgb(0, 0, 0), rgb(255, 255, 255));&quot;&gt;&lt;font style=&quot;font-size: 9px;&quot;&gt;Batch Processing&lt;/font&gt;&lt;/b&gt;&lt;/li&gt;&lt;li&gt;&lt;b style=&quot;background-color: transparent; color: light-dark(rgb(0, 0, 0), rgb(255, 255, 255));&quot;&gt;&lt;font style=&quot;font-size: 9px;&quot;&gt;Full Load(Trunc &amp;amp; Insert)&lt;/font&gt;&lt;/b&gt;&lt;/li&gt;&lt;/ul&gt;&lt;font style=&quot;font-size: 9px;&quot;&gt;&lt;b&gt;No Transformations&lt;/b&gt;&lt;/font&gt;&lt;/div&gt;&lt;div style=&quot;text-align: left;&quot;&gt;&lt;font style=&quot;font-size: 9px;&quot;&gt;&lt;b style=&quot;&quot;&gt;Data Model: None(As-is)&lt;/b&gt;&lt;/font&gt;&lt;/div&gt;" style="rounded=0;whiteSpace=wrap;html=1;" vertex="1" parent="1">
          <mxGeometry x="250" y="360" width="100" height="200" as="geometry" />
        </mxCell>
        <mxCell id="pBMnCugl9iRUpQeV2O6h-54" value="&lt;font style=&quot;font-size: 9px;&quot;&gt;&lt;b style=&quot;&quot;&gt;Object Type:&lt;/b&gt;Table&lt;/font&gt;&lt;div style=&quot;text-align: left;&quot;&gt;&lt;b style=&quot;background-color: transparent; color: light-dark(rgb(0, 0, 0), rgb(255, 255, 255));&quot;&gt;&lt;font style=&quot;font-size: 9px;&quot;&gt;Load:&lt;/font&gt;&lt;/b&gt;&lt;/div&gt;&lt;div style=&quot;text-align: left;&quot;&gt;&lt;ul&gt;&lt;li&gt;&lt;b style=&quot;background-color: transparent; color: light-dark(rgb(0, 0, 0), rgb(255, 255, 255));&quot;&gt;&lt;font style=&quot;font-size: 9px;&quot;&gt;Batch Processing&lt;/font&gt;&lt;/b&gt;&lt;/li&gt;&lt;li&gt;&lt;b style=&quot;background-color: transparent; color: light-dark(rgb(0, 0, 0), rgb(255, 255, 255));&quot;&gt;&lt;font style=&quot;font-size: 9px;&quot;&gt;Full Load(Trunc &amp;amp; Insert)&lt;/font&gt;&lt;/b&gt;&lt;/li&gt;&lt;/ul&gt;&lt;font style=&quot;font-size: 9px;&quot;&gt;&lt;b&gt;Transformations:&lt;/b&gt;&lt;/font&gt;&lt;/div&gt;&lt;div style=&quot;text-align: left;&quot;&gt;&lt;ul&gt;&lt;li&gt;&lt;font style=&quot;font-size: 9px;&quot;&gt;&lt;b&gt;Data Cleaning&lt;/b&gt;&lt;/font&gt;&lt;/li&gt;&lt;li&gt;&lt;font style=&quot;font-size: 9px;&quot;&gt;&lt;b&gt;Data Normalization&lt;/b&gt;&lt;/font&gt;&lt;/li&gt;&lt;li&gt;&lt;font style=&quot;font-size: 9px;&quot;&gt;&lt;b&gt;Derived Columns&lt;/b&gt;&lt;/font&gt;&lt;/li&gt;&lt;li&gt;&lt;font style=&quot;font-size: 9px;&quot;&gt;&lt;b&gt;Data Enrichment&lt;/b&gt;&lt;/font&gt;&lt;/li&gt;&lt;/ul&gt;&lt;font style=&quot;font-size: 9px;&quot;&gt;&lt;b style=&quot;&quot;&gt;Data Model: None(As-is)&lt;/b&gt;&lt;/font&gt;&lt;/div&gt;" style="rounded=0;whiteSpace=wrap;html=1;" vertex="1" parent="1">
          <mxGeometry x="380" y="350" width="110" height="330" as="geometry" />
        </mxCell>
        <mxCell id="pBMnCugl9iRUpQeV2O6h-55" value="&lt;font style=&quot;font-size: 9px;&quot;&gt;&lt;b style=&quot;&quot;&gt;Object Type:Views&lt;/b&gt;&lt;/font&gt;&lt;div style=&quot;text-align: left;&quot;&gt;&lt;b style=&quot;background-color: transparent; color: light-dark(rgb(0, 0, 0), rgb(255, 255, 255));&quot;&gt;&lt;font style=&quot;font-size: 9px;&quot;&gt;No Load&lt;/font&gt;&lt;/b&gt;&lt;/div&gt;&lt;div style=&quot;text-align: left;&quot;&gt;&lt;font style=&quot;font-size: 9px;&quot;&gt;&lt;b&gt;Transformations:&lt;/b&gt;&lt;/font&gt;&lt;/div&gt;&lt;div style=&quot;text-align: left;&quot;&gt;&lt;ul&gt;&lt;li&gt;&lt;font style=&quot;font-size: 9px;&quot;&gt;&lt;b&gt;Data Integrations&lt;/b&gt;&lt;/font&gt;&lt;/li&gt;&lt;li&gt;&lt;b&gt;&lt;font style=&quot;font-size: 9px;&quot;&gt;Aggregations&lt;/font&gt;&lt;/b&gt;&lt;/li&gt;&lt;li&gt;&lt;b&gt;&lt;font style=&quot;font-size: 9px;&quot;&gt;Business Logics&lt;/font&gt;&lt;/b&gt;&lt;/li&gt;&lt;/ul&gt;&lt;font style=&quot;font-size: 9px;&quot;&gt;&lt;b style=&quot;&quot;&gt;Data Model:&amp;nbsp;&lt;/b&gt;&lt;/font&gt;&lt;/div&gt;&lt;div style=&quot;&quot;&gt;&lt;ul&gt;&lt;li style=&quot;text-align: left;&quot;&gt;&lt;font style=&quot;font-size: 9px;&quot;&gt;&lt;b style=&quot;&quot;&gt;Star Schema&lt;/b&gt;&lt;/font&gt;&lt;/li&gt;&lt;li style=&quot;text-align: left;&quot;&gt;&lt;font style=&quot;font-size: 9px;&quot;&gt;&lt;b style=&quot;&quot;&gt;Flat Table&lt;/b&gt;&lt;/font&gt;&lt;/li&gt;&lt;li style=&quot;text-align: left;&quot;&gt;&lt;font style=&quot;font-size: 9px;&quot;&gt;&lt;b style=&quot;&quot;&gt;Aggregated Table&lt;/b&gt;&lt;/font&gt;&lt;/li&gt;&lt;/ul&gt;&lt;/div&gt;" style="rounded=0;whiteSpace=wrap;html=1;" vertex="1" parent="1">
          <mxGeometry x="510" y="350" width="100" height="330" as="geometry" />
        </mxCell>
        <mxCell id="pBMnCugl9iRUpQeV2O6h-56" value="" style="verticalLabelPosition=bottom;sketch=0;aspect=fixed;html=1;verticalAlign=top;strokeColor=none;align=center;outlineConnect=0;shape=mxgraph.citrix.reporting;" vertex="1" parent="1">
          <mxGeometry x="709.25" y="210" width="61.5" height="69" as="geometry" />
        </mxCell>
        <mxCell id="pBMnCugl9iRUpQeV2O6h-57" value="" style="sketch=0;outlineConnect=0;fontColor=#232F3E;gradientColor=none;fillColor=#8C4FFF;strokeColor=none;dashed=0;verticalLabelPosition=bottom;verticalAlign=top;align=center;html=1;fontSize=12;fontStyle=0;aspect=fixed;pointerEvents=1;shape=mxgraph.aws4.redshift_query_editor_v20_light;" vertex="1" parent="1">
          <mxGeometry x="713" y="345" width="78" height="78" as="geometry" />
        </mxCell>
        <mxCell id="pBMnCugl9iRUpQeV2O6h-58" value="" style="points=[];aspect=fixed;html=1;align=center;shadow=0;dashed=0;fillColor=#FF6A00;strokeColor=none;shape=mxgraph.alibaba_cloud.machine_learning;" vertex="1" parent="1">
          <mxGeometry x="720" y="490" width="49.8" height="50.099999999999994" as="geometry" />
        </mxCell>
        <mxCell id="pBMnCugl9iRUpQeV2O6h-59" value="&lt;span&gt;&lt;b&gt;Bi &amp;amp; Reporting&lt;/b&gt;&lt;/span&gt;" style="text;html=1;align=center;verticalAlign=middle;whiteSpace=wrap;rounded=0;fontSize=11;" vertex="1" parent="1">
          <mxGeometry x="690" y="290" width="105" as="geometry" />
        </mxCell>
        <mxCell id="pBMnCugl9iRUpQeV2O6h-60" value="&lt;b style=&quot;&quot;&gt;&lt;font style=&quot;font-size: 10px;&quot;&gt;Ad-Hoc SQL Queries&lt;/font&gt;&lt;/b&gt;" style="text;html=1;align=center;verticalAlign=middle;whiteSpace=wrap;rounded=0;" vertex="1" parent="1">
          <mxGeometry x="687.5" y="440" width="105" as="geometry" />
        </mxCell>
        <mxCell id="pBMnCugl9iRUpQeV2O6h-62" value="&lt;b style=&quot;&quot;&gt;&lt;font style=&quot;font-size: 10px;&quot;&gt;Machine Learning&lt;/font&gt;&lt;/b&gt;" style="text;html=1;align=center;verticalAlign=middle;whiteSpace=wrap;rounded=0;" vertex="1" parent="1">
          <mxGeometry x="692.5" y="550" width="105" as="geometry" />
        </mxCell>
        <mxCell id="pBMnCugl9iRUpQeV2O6h-64" value="&lt;font style=&quot;font-size: 27px;&quot;&gt;Data Architecture&lt;/font&gt;" style="text;html=1;align=center;verticalAlign=middle;whiteSpace=wrap;rounded=0;" vertex="1" parent="1">
          <mxGeometry x="40" y="40" width="270" height="51" as="geometry" />
        </mxCell>
      </root>
    </mxGraphModel>
  </diagram>
</mxfile>
